# xmcd
#
# Track frame offsets:
#	150
#	10182
#	22715
#	34345
#	49342
#	64670
#	80445
#	92442
#	102292
#	114547
#	131682
#	145812
#	157882
#	174320
#	188682
#	202117
#
# Disc length: 2961 seconds
#
# Revision: 2
# Processed by: cddbd v1.5.2PL0 Copyright (c) Steve Scherf et al.
# Submitted via: audiograbber 1.83.01
#
DISCID=c90b8f10
DTITLE=Various Artist - Gimme Dat Ding
DYEAR=1992
DGENRE=Pop Oldies
TTITLE0=The Pipkins - Gimme Dat Ding 1970
TTITLE1=The Archies - Sugar Sugar 1969
TTITLE2=The Troggs - Wild Thing 1978
TTITLE3=David Dundas - Jeans On 1976
TTITLE4=Clout - Substitute1978
TTITLE5=Bubblerock - Satisfaction1974
TTITLE6=Gilbert O'Sullivan - Get Down 1973
TTITLE7=Betty Everett - The shoop Shoop Song 1964
TTITLE8=Shag - Loop Di Love 1972
TTITLE9=Dave Stewart and Barbara Gaskin - It's My Party 1981
TTITLE10=John Holt - Help Me Make It Through The Night 1974
TTITLE11=The Three Degrees - Love Is The Message 1974
TTITLE12=Lou Rawls - Lady Love 1978
TTITLE13=Percy Sledge - Warm And Tender Love 1990
TTITLE14=Tracy Ullman - My Guy 1984
TTITLE15=Chuck Berry - My Ding-A-Ling 1972
EXTD=
EXTT0=
EXTT1=
EXTT2=
EXTT3=
EXTT4=
EXTT5=
EXTT6=
EXTT7=
EXTT8=
EXTT9=
EXTT10=
EXTT11=
EXTT12=
EXTT13=
EXTT14=
EXTT15=
PLAYORDER=
